<?xml version="1.0" encoding="UTF-8"?>
<svg version="1.1" xmlns="http://www.w3.org/2000/svg" width="1024" height="1024">
<path d="M0 0 C1.06427719 -0.00700928 2.12855438 -0.01401855 3.2250824 -0.02124023 C6.729669 -0.03879079 10.23344283 -0.02720806 13.73803711 -0.01367188 C16.17988744 -0.01636741 18.62173672 -0.02025035 21.06358337 -0.02526855 C26.17530561 -0.03115948 31.28674786 -0.02261254 36.3984375 -0.00390625 C42.94789163 0.01889464 49.49669049 0.0057497 56.04612064 -0.01819611 C61.08618604 -0.03265441 66.12609622 -0.02804803 71.16616631 -0.01768494 C73.58108027 -0.0150184 75.99600838 -0.01828482 78.41090584 -0.02760315 C81.7860355 -0.03777009 85.16010545 -0.02226458 88.53515625 0 C90.02917465 -0.01214539 90.02917465 -0.01214539 91.55337524 -0.02453613 C98.44333363 0.05959814 101.81434776 1.29806924 106.84741211 6.08007812 C110.36328764 10.40730954 111.425977 13.29388613 111.11694336 18.78320312 C111.05120117 19.99556641 111.05120117 19.99556641 110.98413086 21.23242188 C110.93256836 22.06902344 110.88100586 22.905625 110.82788086 23.76757812 C110.76213867 24.99927734 110.76213867 24.99927734 110.69506836 26.25585938 C110.48486591 29.94024118 110.19866796 33.54810448 109.69360352 37.20776367 C109.09574641 41.89806983 109.02371969 46.5478365 108.99975586 51.27148438 C108.99274155 52.19728302 108.98572723 53.12308167 108.97850037 54.07693481 C108.96098606 57.07803209 108.95464019 60.07893149 108.95288086 63.08007812 C108.95220612 64.10823639 108.95153137 65.13639465 108.95083618 66.19570923 C109.00069139 114.12892825 116.55885515 163.27762454 138.20288086 206.51757812 C138.7912675 207.75991071 139.37714954 209.00343219 139.96069336 210.24804688 C147.59237396 226.30523279 157.06957423 241.65267953 168.20288086 255.51757812 C169.2740918 256.87496094 169.2740918 256.87496094 170.36694336 258.25976562 C182.4178528 273.29146539 195.97094631 288.62966536 211.54272461 300.09960938 C212.09057617 300.56753906 212.63842773 301.03546875 213.20288086 301.51757812 C213.20288086 302.17757813 213.20288086 302.83757812 213.20288086 303.51757812 C213.7481543 303.75734375 214.29342773 303.99710937 214.85522461 304.24414062 C217.77951856 305.8303633 220.17377553 307.80442677 222.76538086 309.89257812 C244.64577654 327.03159048 270.98545281 341.33959242 297.54663086 349.65820312 C300.15644236 350.5025539 302.66679397 351.47425124 305.20288086 352.51757812 C308.78773034 353.98931345 312.39062693 355.2627064 316.07788086 356.45507812 C322.27235759 358.49108 328.22354562 360.92329578 334.20288086 363.51757812 C335.55441547 364.08795671 336.90597977 364.65826496 338.25756836 365.22851562 C367.95158213 377.91469052 396.08046235 395.74488346 420.78881836 416.51367188 C423.9792959 419.16207799 427.28954145 421.63957012 430.62084961 424.10742188 C431.14291992 424.57277344 431.66499023 425.038125 432.20288086 425.51757812 C432.20288086 426.17757813 432.20288086 426.83757812 432.20288086 427.51757812 C432.74855713 427.73873291 433.2942334 427.9598877 433.85644531 428.18774414 C436.94692906 429.93926479 439.2647625 432.29366353 441.74584961 434.79492188 C442.27374588 435.32090469 442.80164215 435.84688751 443.34553528 436.3888092 C444.46328668 437.50520125 445.57852289 438.62411647 446.69140625 439.74536133 C448.36046035 441.42496844 450.03970259 443.09383224 451.72045898 444.76171875 C458.33887859 451.37197625 464.39181622 458.17910381 470.20288086 465.51757812 C471.06600648 466.54534878 471.9344112 467.56875676 472.81225586 468.58398438 C483.75815331 481.34753998 493.40349832 495.20205809 502.20288086 509.51757812 C502.66549316 510.26765137 503.12810547 511.01772461 503.60473633 511.79052734 C520.13509377 538.69202998 533.30175911 566.892386 544.20288086 596.51757812 C544.66645996 597.77707275 544.66645996 597.77707275 545.1394043 599.06201172 C557.41011346 632.92792326 564.90315015 668.81531979 569.20288086 704.51757812 C569.35152588 705.69247803 569.35152588 705.69247803 569.50317383 706.89111328 C572.11144318 727.62971358 572.57271206 748.63391852 572.20288086 769.51757812 C572.18402832 770.89719727 572.18402832 770.89719727 572.16479492 772.3046875 C571.87055972 790.23502057 569.81272654 807.79452377 567.20288086 825.51757812 C567.03884766 826.66822754 566.87481445 827.81887695 566.70581055 829.00439453 C566.24939994 832.15883324 565.7643956 835.30712897 565.26538086 838.45507812 C565.13220459 839.36531738 564.99902832 840.27555664 564.86181641 841.21337891 C563.57811383 848.80927762 560.64587345 855.36964186 554.20288086 859.95507812 C553.56350586 860.42816406 552.92413086 860.90125 552.26538086 861.38867188 C548.29443407 863.56216358 544.13214583 863.64410139 539.68217468 863.65802002 C538.03582535 863.66658524 538.03582535 863.66658524 536.35621643 863.67532349 C535.16181442 863.67644135 533.96741241 863.6775592 532.73681641 863.67871094 C531.47121887 863.68367584 530.20562134 863.68864075 528.90167236 863.6937561 C525.43666627 863.70684 521.97167952 863.7133171 518.50665259 863.71776676 C516.33915242 863.72070373 514.17165746 863.72480969 512.00415993 863.72927094 C505.21463093 863.74293476 498.42511393 863.75260709 491.63557214 863.75647283 C483.81256612 863.7609522 475.98973495 863.77849908 468.16678208 863.80747342 C462.10970254 863.8291246 456.05267208 863.83917892 449.99555427 863.84051394 C446.38248797 863.84155944 442.76958627 863.84741253 439.1565609 863.86533356 C435.12330977 863.88495106 431.09042256 863.88051163 427.05712891 863.87402344 C425.27463493 863.88784561 425.27463493 863.88784561 423.45613098 863.90194702 C416.11975039 863.86500627 410.01017938 863.38963433 403.96069336 858.82617188 C403.15245117 857.89998047 403.15245117 857.89998047 402.32788086 856.95507812 C401.77358398 856.35566406 401.21928711 855.75625 400.64819336 855.13867188 C395.99099386 846.69277765 397.43345411 838.68242038 399.45288086 829.64257812 C399.91786459 827.43715251 400.38141368 825.23142391 400.84350586 823.02539062 C401.18877319 821.40793945 401.18877319 821.40793945 401.54101562 819.7578125 C402.5739706 814.70086731 403.39646833 809.61474969 404.20288086 804.51757812 C404.40010742 803.32648437 404.59733398 802.13539063 404.80053711 800.90820312 C409.48965219 769.22712309 407.95500224 736.07333153 403.20288086 704.51757812 C403.0975 703.79650879 402.99211914 703.07543945 402.88354492 702.33251953 C400.94167824 689.40478086 397.10141253 676.96686171 393.20288086 664.51757812 C392.92959961 663.64020996 392.65631836 662.7628418 392.37475586 661.85888672 C382.75862998 631.48442047 366.77180168 602.40963311 345.59179688 578.53808594 C343.50873098 576.17678501 342.21263394 574.54683738 341.20288086 571.51757812 C340.54288086 571.51757812 339.88288086 571.51757812 339.20288086 571.51757812 C337.82788086 570.11914062 337.82788086 570.11914062 336.20288086 568.14257812 C311.5677346 539.28280968 278.47007943 521.76349773 243.49975586 508.58789062 C238.86559957 506.8196618 234.36527821 504.82617582 229.86401367 502.74511719 C227.39450366 501.60597073 224.91324838 500.50186801 222.42163086 499.41210938 C206.62008733 492.4635371 191.52598048 484.56678586 176.64038086 475.83007812 C175.74851074 475.30768555 174.85664063 474.78529297 173.93774414 474.24707031 C168.58815131 471.06709564 163.46443608 467.66602231 158.39306641 464.05981445 C155.94970252 462.33930061 153.44436286 460.75585934 150.89038086 459.20507812 C127.35190635 444.36488333 106.13774629 424.39410491 86.39038086 404.89257812 C85.77291992 404.28816895 85.15545898 403.68375977 84.51928711 403.06103516 C83.04068225 401.58538413 81.6161792 400.05589087 80.20288086 398.51757812 C80.20288086 397.85757812 80.20288086 397.19757813 80.20288086 396.51757812 C79.54288086 396.51757812 78.88288086 396.51757812 78.20288086 396.51757812 C76.82788086 395.18945313 76.82788086 395.18945313 75.20288086 393.26757812 C74.58026367 392.53410156 73.95764648 391.800625 73.31616211 391.04492188 C72.6187793 390.21089844 71.92139648 389.376875 71.20288086 388.51757812 C70.43331055 387.61136719 69.66374023 386.70515625 68.87084961 385.77148438 C39.96929426 351.4992463 15.54942712 312.75445815 -0.19165039 270.66601562 C-1.27088764 267.798753 -2.46599535 265.02136834 -3.75024414 262.24023438 C-6.18713445 256.82776662 -7.96014674 251.2381126 -9.73461914 245.58007812 C-10.08379395 244.47253174 -10.43296875 243.36498535 -10.79272461 242.22387695 C-11.80467861 238.99157133 -12.80459643 235.75589816 -13.79711914 232.51757812 C-14.0463916 231.70579102 -14.29566406 230.89400391 -14.55249023 230.05761719 C-21.40404455 207.42779669 -25.82814965 183.95158484 -28.79711914 160.51757812 C-28.94810059 159.33292969 -29.09908203 158.14828125 -29.25463867 156.92773438 C-33.79745571 119.56588207 -32.73501314 81.87642967 -28.79711914 44.51757812 C-28.61511823 42.61024538 -28.43512244 40.7027191 -28.25805664 38.79492188 C-25.62065085 11.33892188 -25.62065085 11.33892188 -17.79711914 4.51757812 C-11.81893566 0.31185267 -7.20434599 -0.05868586 0 0 Z " fill="#030303" transform="translate(215.797119140625,77.482421875)"/>
<path d="M0 0 C0.95315094 -0.01142029 1.90630188 -0.02284058 2.88833618 -0.03460693 C3.92737091 -0.03684265 4.96640564 -0.03907837 6.03692627 -0.04138184 C7.68638748 -0.05627655 7.68638748 -0.05627655 9.36917114 -0.07147217 C13.01007586 -0.10070161 16.65080627 -0.11431729 20.29180908 -0.12536621 C22.82283534 -0.13687076 25.35386154 -0.14838621 27.8848877 -0.15991211 C32.51582944 -0.17824266 37.14671894 -0.19084447 41.77768779 -0.19690561 C48.57993873 -0.20585902 55.38138425 -0.24092193 62.18339038 -0.2989068 C68.08656436 -0.34747102 73.98953932 -0.36280011 79.89292145 -0.36625671 C82.39833204 -0.37230433 84.90373945 -0.38834329 87.40901947 -0.41462708 C90.91841779 -0.44881545 94.42586557 -0.44497339 97.93536377 -0.43200684 C98.96630157 -0.4504364 99.99723938 -0.46886597 101.05941772 -0.487854 C108.13618765 -0.40612365 112.16750604 1.3369992 117.24493408 6.28088379 C121.26119709 10.81537429 121.20529425 16.46789382 121.24493408 22.28088379 C120.30399777 32.57694187 118.26324623 42.64186694 115.99493408 52.71838379 C115.68523317 54.11378124 115.37566494 55.50920815 115.06622314 56.90466309 C112.34940653 69.08474128 109.4188257 81.21150534 106.24493408 93.28088379 C106.00323486 94.20175781 105.76153564 95.12263184 105.51251221 96.07141113 C103.9585521 101.88867089 102.20383332 107.58885963 100.24493408 113.28088379 C99.53517891 115.39542693 98.82555473 117.51001404 98.11602783 119.62463379 C92.96729178 134.8169113 87.44251904 149.77253344 81.3369751 164.6126709 C80.26999861 167.21964297 79.22543994 169.83456888 78.18634033 172.45275879 C73.27312128 184.75650136 67.69086731 196.62850842 61.38555908 208.27697754 C59.4638022 211.83493924 57.68800522 215.45014757 55.93243408 219.09338379 C52.52490844 225.98805015 48.58623001 232.51986913 44.58868408 239.08630371 C41.91977186 243.47256997 39.32964602 247.86278052 36.93243408 252.40588379 C34.60459982 256.77567794 31.91271423 260.74845389 29.01837158 264.76135254 C27.21901603 267.31770569 25.57275971 269.93266781 23.93243408 272.59338379 C20.51635924 278.02387047 16.66077036 283.0518841 12.71368408 288.09729004 C10.50747445 290.92208691 8.39538032 293.80467193 6.30743408 296.71838379 C-0.43493471 306.04873253 -7.49168754 315.13778727 -15.29412842 323.60900879 C-16.83480279 325.23053983 -16.83480279 325.23053983 -17.75506592 327.28088379 C-18.41506592 327.28088379 -19.07506592 327.28088379 -19.75506592 327.28088379 C-19.97162842 327.81455566 -20.18819092 328.34822754 -20.41131592 328.89807129 C-22.24461059 332.14897172 -24.71030189 334.70855311 -27.25506592 337.40588379 C-27.78462891 337.97411865 -28.31419189 338.54235352 -28.85980225 339.12780762 C-33.09646888 343.64814286 -37.45462677 348.03117355 -41.89178467 352.35510254 C-43.81447874 354.14926068 -43.81447874 354.14926068 -44.75506592 356.28088379 C-45.41506592 356.28088379 -46.07506592 356.28088379 -46.75506592 356.28088379 C-47.08506592 357.27088379 -47.41506592 358.26088379 -47.75506592 359.28088379 C-49.29730225 360.79748535 -49.29730225 360.79748535 -51.27459717 362.42150879 C-56.74135088 367.05819354 -61.67130742 372.17919299 -66.66326904 377.31604004 C-67.3780542 378.04178223 -68.09283936 378.76752441 -68.82928467 379.51525879 C-69.46438965 380.16720215 -70.09949463 380.81914551 -70.75384521 381.49084473 C-74.89144844 385.19182152 -78.13370357 386.71122953 -83.69256592 386.71838379 C-85.19110107 386.7473877 -85.19110107 386.7473877 -86.71990967 386.77697754 C-94.35457434 385.52909799 -99.35561035 378.88857866 -104.50506592 373.59338379 C-106.01847293 372.04563897 -107.53399297 370.49995659 -109.05194092 368.95666504 C-109.71548584 368.27515381 -110.37903076 367.59364258 -111.06268311 366.89147949 C-112.67676034 365.19810028 -112.67676034 365.19810028 -114.75506592 364.28088379 C-114.75506592 363.62088379 -114.75506592 362.96088379 -114.75506592 362.28088379 C-115.54010498 361.95797363 -115.54010498 361.95797363 -116.34100342 361.62854004 C-119.72302223 359.74051983 -122.46838302 357.25635739 -125.38006592 354.71838379 C-129.31327523 351.13514701 -129.31327523 351.13514701 -133.75506592 348.28088379 C-133.75506592 347.62088379 -133.75506592 346.96088379 -133.75506592 346.28088379 C-134.82627686 345.90963379 -134.82627686 345.90963379 -135.91912842 345.53088379 C-139.08131967 344.13708048 -141.41183443 342.41283005 -144.13006592 340.28088379 C-148.65218104 336.80424199 -153.25634856 333.50380145 -158.00506592 330.34338379 C-158.62623291 329.92911133 -159.2473999 329.51483887 -159.88739014 329.0880127 C-163.22283801 326.88564735 -166.59139364 324.76003854 -170.02069092 322.70666504 C-185.77287866 313.2452583 -185.77287866 313.2452583 -189.75506592 305.28088379 C-190.52218733 300.14408344 -190.39715134 295.52661422 -187.75506592 290.96838379 C-182.93272825 284.50439926 -176.09584925 279.7999856 -169.78729248 274.88000488 C-157.60296717 265.29238706 -145.91758834 254.85467615 -135.24334717 243.60900879 C-133.75506592 242.28088379 -133.75506592 242.28088379 -131.75506592 242.28088379 C-131.42506592 241.29088379 -131.09506592 240.30088379 -130.75506592 239.28088379 C-130.09506592 239.28088379 -129.43506592 239.28088379 -128.75506592 239.28088379 C-128.75506592 238.62088379 -128.75506592 237.96088379 -128.75506592 237.28088379 C-128.09506592 237.28088379 -127.43506592 237.28088379 -126.75506592 237.28088379 C-126.42506592 236.29088379 -126.09506592 235.30088379 -125.75506592 234.28088379 C-125.09506592 234.28088379 -124.43506592 234.28088379 -123.75506592 234.28088379 C-123.50885498 233.70467285 -123.26264404 233.12846191 -123.00897217 232.53479004 C-121.55344493 229.91846849 -119.86897861 228.27196543 -117.69256592 226.21838379 C-112.5981476 221.22942317 -108.19173856 215.85334462 -103.75506592 210.28088379 C-102.8072319 209.12219758 -101.8579462 207.96469776 -100.90740967 206.80822754 C-93.67151324 197.96016396 -87.06374466 188.80900926 -80.75506592 179.28088379 C-80.28681396 178.57641113 -79.81856201 177.87193848 -79.33612061 177.14611816 C-70.09519453 163.19968985 -61.96372084 149.06648033 -54.91912842 133.88635254 C-53.06429703 129.90035105 -51.08862296 125.99749618 -49.06756592 122.09338379 C-45.63096068 115.28366718 -43.00540878 108.29337569 -40.43280029 101.1270752 C-39.47853239 98.52758892 -38.42157705 95.97147289 -37.38006592 93.40588379 C-29.34249688 72.44617803 -24.08206498 50.62615669 -19.60272217 28.67150879 C-19.42579834 27.80840088 -19.24887451 26.94529297 -19.06658936 26.05603027 C-18.74757442 24.48171342 -18.43625957 22.90580389 -18.13494873 21.32800293 C-16.63264936 13.79135208 -14.10568636 7.89251011 -8.75506592 2.28088379 C-5.76023373 0.4315221 -3.49605855 0.02516242 0 0 Z " fill="#040303" transform="translate(807.7550659179688,76.7191162109375)"/>
<path d="M0 0 C3.10909544 2.4584503 5.88459444 5.01063618 8.71484375 7.78515625 C10.79320847 10.02217416 10.79320847 10.02217416 13 11 C13 11.66 13 12.32 13 13 C13.82951172 13.35964844 13.82951172 13.35964844 14.67578125 13.7265625 C17.53117717 15.29103152 19.7319025 17.23457792 22.1875 19.375 C39.22225211 33.84177918 58.49261185 45.58205771 78.5625 55.32421875 C93.56114065 62.63605607 93.56114065 62.63605607 97.8125 68.5 C100.00374306 74.95840059 100.2658036 81.33003751 97.3203125 87.54296875 C95.15702235 91.0342667 92.51455386 93.64621455 89.4375 96.375 C88.48746094 97.22835937 87.53742188 98.08171875 86.55859375 98.9609375 C84.61698252 100.65058612 82.64743659 102.27968941 80.63061523 103.87963867 C73.26526332 109.740263 66.59060825 116.10097033 59.96411133 122.77514648 C58.17946419 124.5705844 56.38427446 126.35498506 54.58789062 128.13867188 C47.55090246 135.14163463 47.55090246 135.14163463 41.30078125 142.83984375 C40.54152344 143.88269531 39.78226563 144.92554688 39 146 C38.34 146 37.68 146 37 146 C36.72615479 146.58918213 36.45230957 147.17836426 36.17016602 147.78540039 C35.03896672 149.92625348 33.83232045 151.58595882 32.27734375 153.43359375 C31.74351074 154.07546631 31.20967773 154.71733887 30.65966797 155.37866211 C30.09135254 156.05807861 29.52303711 156.73749512 28.9375 157.4375 C23.21541464 164.38844211 17.95258124 171.47552251 13 179 C12.57509277 179.64018066 12.15018555 180.28036133 11.71240234 180.93994141 C0.88615451 197.28255014 -8.68488416 213.80138537 -16.89208984 231.61669922 C-17.848946 233.67505749 -18.82971174 235.71743871 -19.83203125 237.75390625 C-37.62033488 274.37198327 -48.51468938 315.11713893 -55.36621094 355.13916016 C-55.6160336 356.59624274 -55.86942923 358.05271742 -56.12646484 359.50854492 C-56.47733097 361.49655699 -56.81717338 363.4865057 -57.15625 365.4765625 C-58.74011289 372.0906566 -61.85397699 377.74131681 -67.4375 381.75 C-73.00820167 384.46741545 -78.73603887 384.15378571 -84.80395508 384.16113281 C-85.78669907 384.16609772 -86.76944305 384.17106262 -87.78196716 384.17617798 C-91.02782903 384.19076349 -94.27364202 384.1975954 -97.51953125 384.203125 C-99.78008525 384.20887916 -102.04063925 384.21463686 -104.30119324 384.22039795 C-109.03974637 384.23089748 -113.77828258 384.2367471 -118.5168457 384.24023438 C-124.57951685 384.24571866 -130.64196337 384.26974991 -136.70456409 384.29820633 C-141.37408598 384.31685716 -146.04355399 384.32203961 -150.71310997 384.32357025 C-152.94775305 384.32659147 -155.18239531 384.33460201 -157.41700172 384.34775543 C-160.5474608 384.36486771 -163.67737407 384.36292292 -166.80786133 384.35644531 C-167.72501923 384.3656601 -168.64217712 384.37487488 -169.58712769 384.3843689 C-176.2024581 384.34162976 -182.0929778 383.51808956 -187.27734375 379.02734375 C-188.09912109 377.99287109 -188.09912109 377.99287109 -188.9375 376.9375 C-189.50339844 376.24527344 -190.06929688 375.55304688 -190.65234375 374.83984375 C-196.78435735 366.46831214 -192.80840612 349.60996816 -191.34643555 339.96166992 C-190.11338432 332.27038119 -188.61509927 324.63667236 -187.02734375 317.01171875 C-186.1558604 312.81796083 -185.36834823 308.61312765 -184.60009766 304.39941406 C-179.05802664 274.22275193 -171.86987111 242.66966308 -159.92578125 214.30859375 C-158.8457068 211.61524354 -157.95447234 208.88620521 -157.0625 206.125 C-147.48089403 176.89361617 -132.16953888 148.55910192 -116.34863281 122.24707031 C-114.88779462 119.8130452 -113.44043124 117.37122445 -111.9921875 114.9296875 C-110.99556408 113.26516228 -109.99818609 111.60108859 -109 109.9375 C-108.29641357 108.74846069 -108.29641357 108.74846069 -107.57861328 107.53540039 C-107.1401709 106.8108667 -106.70172852 106.08633301 -106.25 105.33984375 C-105.66992188 104.37099243 -105.66992188 104.37099243 -105.078125 103.38256836 C-104.72234375 102.9263208 -104.3665625 102.47007324 -104 102 C-103.34 102 -102.68 102 -102 102 C-101.74347656 101.27941406 -101.48695313 100.55882812 -101.22265625 99.81640625 C-99.92652036 96.83073858 -98.38298923 94.54327649 -96.4375 91.9375 C-95.72335938 90.97714844 -95.00921875 90.01679687 -94.2734375 89.02734375 C-93.52320313 88.02832031 -92.77296875 87.02929688 -92 86 C-91.27039063 85.01128906 -90.54078125 84.02257812 -89.7890625 83.00390625 C-84.7211331 76.16664711 -79.45409424 69.53233363 -74 63 C-73.57992676 62.49355957 -73.15985352 61.98711914 -72.72705078 61.46533203 C-65.74672059 53.05632469 -58.46587102 44.97861794 -51 37 C-48.72719417 34.56433283 -46.45684393 32.12639262 -44.1875 29.6875 C-43.630625 29.09001953 -43.07375 28.49253906 -42.5 27.87695312 C-39.81338217 24.9864113 -37.17486872 22.07538835 -34.625 19.0625 C-31.04979279 14.95729977 -27.28895527 11.03204422 -23.5 7.125 C-22.8704541 6.45734619 -22.2409082 5.78969238 -21.59228516 5.10180664 C-15.33101534 -1.26961061 -8.43065729 -3.99626432 0 0 Z " fill="#040404" transform="translate(309,557)"/>
<path d="M0 0 C0.9075 0.51175781 1.815 1.02351562 2.75 1.55078125 C10.38726751 6.09625722 16.70441988 11.79941491 23 18 C23.80566406 18.78117187 24.61132812 19.56234375 25.44140625 20.3671875 C43.48605774 39.00809704 49.56382578 64.67752126 49.2109375 89.89453125 C48.19203431 122.93341071 32.71786469 151.86903923 11 176 C10.36964844 176.71414063 9.73929688 177.42828125 9.08984375 178.1640625 C0.15418494 187.70852444 -11.53713509 195.80651381 -23 202 C-23.78246094 202.43699219 -24.56492187 202.87398437 -25.37109375 203.32421875 C-31.0298042 206.33917968 -36.76877848 208.32470806 -42.921875 210.10546875 C-44.86806506 210.67104936 -46.7996476 211.29235671 -48.703125 211.98828125 C-57.4305731 214.66649103 -66.09471134 215.38912582 -75.1875 215.375 C-76.27885254 215.37338867 -77.37020508 215.37177734 -78.49462891 215.37011719 C-87.57378781 215.23334652 -95.39353911 213.87881619 -104 211 C-105.46373047 210.566875 -105.46373047 210.566875 -106.95703125 210.125 C-118.3420133 206.47659373 -129.39760803 199.2722776 -138 191 C-138 190.34 -138 189.68 -138 189 C-138.99 188.67 -139.98 188.34 -141 188 C-141 187.34 -141 186.68 -141 186 C-141.66 186 -142.32 186 -143 186 C-159.09909403 167.48226274 -167.6121074 144.07155136 -167.39111328 119.66870117 C-167.37503353 117.56688329 -167.39106491 115.4669946 -167.41015625 113.36523438 C-167.46607903 78.98426087 -149.81825393 47.88253483 -126.25 23.875 C-119.65422696 17.29303689 -112.98001724 11.86419655 -105 7 C-103.91589844 6.31679687 -102.83179688 5.63359375 -101.71484375 4.9296875 C-92.59883612 -0.57550195 -83.08506866 -4.6067601 -73 -8 C-71.91976562 -8.36351563 -70.83953125 -8.72703125 -69.7265625 -9.1015625 C-46.82953715 -15.27280107 -20.37666796 -11.99498623 0 0 Z " fill="#030302" transform="translate(585,129)"/>
<path d="M0 0 C0.93423645 3.01031744 1.04449911 3.86650268 0 7 C-0.66 7 -1.32 7 -2 7 C-1.98066406 8.299375 -1.96132812 9.59875 -1.94140625 10.9375 C-1.94233431 15.68171903 -2.36167324 20.29537287 -2.9375 25 C-3.02451172 25.7425 -3.11152344 26.485 -3.20117188 27.25 C-3.37592405 28.74121852 -3.55346291 30.23211331 -3.73388672 31.72265625 C-3.91965419 33.31241682 -4.09210904 34.90376475 -4.25439453 36.49609375 C-4.3367334 37.30175781 -4.41907227 38.10742188 -4.50390625 38.9375 C-4.57552979 39.66839844 -4.64715332 40.39929688 -4.72094727 41.15234375 C-5 43 -5 43 -6 45 C-8.92426064 80.05502575 -7.30646464 115.88876284 -6 151 C-6.33 151 -6.66 151 -7 151 C-11.66309431 112.33517637 -11.07761587 73.68439474 -7 35 C-6.81799909 33.09266725 -6.6380033 31.18514097 -6.4609375 29.27734375 C-4.25336024 6.38004037 -4.25336024 6.38004037 0 0 Z " fill="#999898" transform="translate(194,87)"/>
<path d="M0 0 C1.06442322 -0.0071553 2.12884644 -0.01431061 3.2255249 -0.02168274 C6.72484967 -0.03851687 10.22288404 -0.01919925 13.72216797 0.00219727 C16.16258856 0.00136821 18.60300909 -0.00109254 21.04342651 -0.00511169 C26.14923988 -0.00796594 31.25461365 0.00669814 36.36035156 0.03417969 C42.90195225 0.0682972 49.44276896 0.06222823 55.98440742 0.04351711 C61.02019782 0.03294622 66.05580598 0.04188533 71.09157944 0.05690193 C73.50369602 0.06208105 75.91583166 0.06160524 78.32794571 0.05535698 C81.6982134 0.04990255 85.06736007 0.07028782 88.4375 0.09765625 C89.43194122 0.09113037 90.42638245 0.08460449 91.45095825 0.07788086 C97.30095823 0.15859497 100.57560314 0.82817763 105.08935547 4.63110352 C102.08935547 4.63110352 102.08935547 4.63110352 99.08935547 3.63110352 C97.59743787 3.53209959 96.10156204 3.48764355 94.60639954 3.47720337 C93.22922005 3.46430267 93.22922005 3.46430267 91.82421875 3.45114136 C90.8189917 3.44688141 89.81376465 3.44262146 88.77807617 3.43823242 C87.71759567 3.43005493 86.65711517 3.42187744 85.5644989 3.41345215 C82.04805059 3.38860014 78.53164267 3.37208189 75.01513672 3.35766602 C73.81429129 3.35234234 72.61344585 3.34701866 71.37621117 3.34153366 C65.01928724 3.31480201 58.66238295 3.29542774 52.30541992 3.28100586 C45.7425914 3.26436464 39.18026567 3.21959046 32.61762714 3.16863441 C27.56893849 3.13496124 22.52036914 3.12342824 17.4715786 3.11777878 C15.05269723 3.11106584 12.63382372 3.09584282 10.21505165 3.07188797 C6.82548818 3.04023598 3.43728016 3.04020057 0.04760742 3.04760742 C-0.94749847 3.03120209 -1.94260437 3.01479675 -2.96786499 2.99789429 C-9.67510935 3.05774514 -13.58083617 4.63085483 -18.91064453 8.63110352 C-19.90064453 9.12610352 -19.90064453 9.12610352 -20.91064453 9.63110352 C-17.08965399 0.71850946 -8.7107514 -0.10283581 0 0 Z " fill="#8B8A8A" transform="translate(215.91064453125,77.368896484375)"/>
<path d="M0 0 C2 1 2 1 2.77685547 2.89624023 C4.60881032 9.23430381 5.97909404 15.56750502 7.125 22.0625 C7.4574445 23.92901093 7.79319553 25.79493704 8.1328125 27.66015625 C8.27605957 28.47105713 8.41930664 29.28195801 8.56689453 30.11743164 C8.82518692 32.00204331 8.82518692 32.00204331 10 33 C13.01222934 47.40468574 13.71295445 62.32958011 14 77 C14.02191406 78.05396973 14.04382813 79.10793945 14.06640625 80.19384766 C14.50624381 105.15829464 14.37176673 130.71923843 8 155 C7.67 155 7.34 155 7 155 C7.50908311 150.22734585 8.06022075 145.46925165 8.71875 140.71484375 C10.66582046 126.47249805 11.71506145 112.37014403 12 98 C12.01659668 97.18305664 12.03319336 96.36611328 12.05029297 95.52441406 C12.54591078 66.33803209 9.87186342 36.9253326 1.62548828 8.84838867 C0.7350327 5.80139297 0 3.19316247 0 0 Z " fill="#B3B3B3" transform="translate(611,745)"/>
<path d="M0 0 C1.31223156 3.60448416 0.67781335 5.43739253 -0.875 8.875 C-2.47349959 12.60115767 -3.57198841 15.93388992 -4 20 C-4.66 20 -5.32 20 -6 20 C-9.43054282 54.23999519 -9.43054282 54.23999519 -1.8046875 87.08203125 C-1 89 -1 89 -1 92 C-0.34 92 0.32 92 1 92 C1.33 93.98 1.66 95.96 2 98 C2.66 98 3.32 98 4 98 C4.99 101.465 4.99 101.465 6 105 C2.46982265 101.87238674 0.44426776 98.48277556 -1.5 94.25 C-1.80115723 93.60184326 -2.10231445 92.95368652 -2.41259766 92.28588867 C-5.61030143 85.10008582 -7.34516746 77.66027322 -9 70 C-9.26369385 69.12504883 -9.26369385 69.12504883 -9.53271484 68.23242188 C-10.60914799 63.08983846 -10.2264442 57.66508639 -10.24023438 52.4230957 C-10.249802 50.23282827 -10.28077822 48.04355745 -10.3125 45.85351562 C-10.40994359 33.12415909 -8.72514815 21.06914433 -3.875 9.1875 C-3.61074219 8.50880859 -3.34648437 7.83011719 -3.07421875 7.13085938 C-2.12560978 4.71118422 -1.16279738 2.32559476 0 0 Z " fill="#818180" transform="translate(428,197)"/>
<path d="M0 0 C1.44273285 -0.00845947 1.44273285 -0.00845947 2.91461182 -0.01708984 C3.96307281 -0.01304138 5.01153381 -0.00899292 6.09176636 -0.00482178 C7.20104492 -0.00832642 8.31032349 -0.01183105 9.45321655 -0.01544189 C13.12299846 -0.02425092 16.79258793 -0.01841366 20.46237183 -0.01165771 C23.00777219 -0.01300441 25.5531723 -0.01494497 28.09857178 -0.01745605 C33.43324469 -0.02040604 38.76784841 -0.01630327 44.10250854 -0.0067749 C50.27375377 0.00412027 56.44486696 0.00057524 62.61610901 -0.01042771 C68.55135395 -0.02058693 74.48655776 -0.01952526 80.42181015 -0.01366425 C82.94888197 -0.01232654 85.47595715 -0.01397966 88.00302505 -0.01862335 C91.52748923 -0.02367909 95.05169642 -0.01599215 98.57614136 -0.00482178 C99.62865082 -0.00887024 100.68116028 -0.0129187 101.76556396 -0.01708984 C102.72174622 -0.0114502 103.67792847 -0.00581055 104.66308594 0 C105.49672228 0.00075405 106.33035862 0.0015081 107.18925667 0.002285 C109.20455933 0.25396729 109.20455933 0.25396729 111.20455933 2.25396729 C110.62440819 2.24751473 110.04425705 2.24106218 109.44652557 2.2344141 C95.3071287 2.07958578 81.16785946 1.96387276 67.02779388 1.89128208 C60.18959543 1.85524116 53.35196403 1.80613701 46.51412964 1.72589111 C39.91354166 1.6484666 33.31338729 1.6079604 26.71232605 1.58982658 C24.19570145 1.57690608 21.67910859 1.55167478 19.16273499 1.51385689 C15.63365424 1.46293517 12.10699603 1.45604836 8.5776062 1.45928955 C7.54038422 1.43412262 6.50316223 1.40895569 5.43450928 1.38302612 C-0.07484337 1.43766844 -3.13384554 2.01946663 -7.3187561 5.74113464 C-7.92382744 6.37204986 -8.52889877 7.00296507 -9.1523056 7.65299892 C-10.79544067 9.25396729 -10.79544067 9.25396729 -13.79544067 10.25396729 C-14.12544067 13.22396729 -14.45544067 16.19396729 -14.79544067 19.25396729 C-15.45544067 19.25396729 -16.11544067 19.25396729 -16.79544067 19.25396729 C-16.73356567 21.17209229 -16.73356567 21.17209229 -16.67044067 23.12896729 C-16.60012817 25.30865479 -16.60012817 25.30865479 -16.79544067 27.25396729 C-17.45544067 27.91396729 -18.11544067 28.57396729 -18.79544067 29.25396729 C-18.25739269 19.32790964 -17.14001403 11.27464603 -10.39309692 3.66412354 C-7.1319807 0.78573 -4.30343321 0.00388908 0 0 Z " fill="#8E8E8D" transform="translate(807.7954406738281,76.74603271484375)"/>
<path d="M0 0 C2 1 2 1 2.63037109 2.79589844 C3.00743597 5.04434079 3.04206142 6.99199991 2.9140625 9.265625 C2.84832031 10.47798828 2.84832031 10.47798828 2.78125 11.71484375 C2.70390625 12.96974609 2.70390625 12.96974609 2.625 14.25 C2.58117187 15.07113281 2.53734375 15.89226562 2.4921875 16.73828125 C2.28198505 20.42266306 1.9957871 24.03052636 1.49072266 27.69018555 C0.89286703 32.38048011 0.82075492 37.0302657 0.796875 41.75390625 C0.78999664 42.6802034 0.78311829 43.60650055 0.77603149 44.56086731 C0.75885571 47.56145163 0.75256653 50.56186901 0.75 53.5625 C0.74832825 54.58700256 0.74665649 55.61150513 0.74493408 56.66705322 C0.74321232 74.30577044 1.77352405 91.49827876 4 109 C4.2163608 110.81362175 4.43133985 112.62740921 4.64453125 114.44140625 C5.06525406 117.96541547 5.51563405 121.48407302 6 125 C4.0695688 122.1043532 3.65499101 120.95289051 3.18359375 117.65625 C3.05919922 116.82222656 2.93480469 115.98820312 2.80664062 115.12890625 C2.62391602 113.82759766 2.62391602 113.82759766 2.4375 112.5 C2.18845083 110.78092211 1.9372379 109.06215593 1.68359375 107.34375 C1.57587646 106.58255859 1.46815918 105.82136719 1.35717773 105.03710938 C1.0179815 102.80788178 1.0179815 102.80788178 0 100 C-1.46074407 86.77900888 -1.15356518 73.38481738 -1.13037109 60.10620117 C-1.12496539 56.41385886 -1.13036907 52.72163572 -1.13671875 49.02929688 C-1.13605867 46.66406223 -1.13477897 44.29882767 -1.1328125 41.93359375 C-1.13483673 40.83873154 -1.13686096 39.74386932 -1.13894653 38.61582947 C-1.12265225 33.29694298 -0.84220777 28.26390185 0 23 C0.07437241 21.09622613 0.10842007 19.19035187 0.09765625 17.28515625 C0.09443359 16.27001953 0.09121094 15.25488281 0.08789062 14.20898438 C0.07951172 13.17064453 0.07113281 12.13230469 0.0625 11.0625 C0.05798828 9.99708984 0.05347656 8.93167969 0.04882812 7.83398438 C0.03711787 5.22259709 0.02071724 2.61132876 0 0 Z " fill="#9D9D9D" transform="translate(324,87)"/>
<path d="M0 0 C0.33 0 0.66 0 1 0 C0.88437222 2.47991158 0.75768577 4.95848759 0.625 7.4375 C0.57859375 8.46907227 0.57859375 8.46907227 0.53125 9.52148438 C0.33191301 13.09293876 -0.04370991 16.47172925 -0.875 19.953125 C-2.43905389 26.55018761 -3.32466441 33.26793332 -4.28710938 39.97338867 C-4.62291493 42.2980657 -4.97139769 44.62061874 -5.3203125 46.94335938 C-6.55078301 55.34910779 -7.35518787 63.47860677 -7 72 C-9.50614999 69.49385001 -9.28317811 67.91872356 -9.32910156 64.49267578 C-9.32362305 63.73196777 -9.31814453 62.97125977 -9.3125 62.1875 C-9.30831055 61.39069824 -9.30412109 60.59389648 -9.29980469 59.77294922 C-9.0127512 44.01859898 -5.64054756 28.51702118 -2.43896484 13.14550781 C-1.54552162 8.77866739 -0.76537442 4.39083222 0 0 Z " fill="#9A9B9A" transform="translate(125,858)"/>
<path d="M0 0 C-1.93469776 0.63362121 -3.87296739 1.25633651 -5.8125 1.875 C-6.89144531 2.22304688 -7.97039063 2.57109375 -9.08203125 2.9296875 C-18.21269254 5.56509259 -27.08829995 6.31945046 -36.5625 6.25 C-38.15094727 6.26160156 -38.15094727 6.26160156 -39.77148438 6.2734375 C-46.41125037 6.25707332 -52.54929216 5.580059 -59 4 C-59 3.67 -59 3.34 -59 3 C-58.08412109 3.01047363 -57.16824219 3.02094727 -56.22460938 3.03173828 C-52.74297441 3.06634437 -49.26152879 3.09114825 -45.77978516 3.10986328 C-44.28854442 3.11976443 -42.79732221 3.13328888 -41.30615234 3.15087891 C-30.28355917 3.27740428 -8.85925629 -3.40740626 0 0 Z " fill="#838283" transform="translate(546,338)"/>
<path d="M0 0 C1.97861798 1.64262625 2.90839161 2.65815931 3.58203125 5.171875 C4.80664704 18.87096688 1.45206698 32.34481934 -1.5625 45.625 C-1.88276077 47.05585557 -2.20242431 48.48684496 -2.52148438 49.91796875 C-3.10247452 52.52382942 -3.68748018 55.12864358 -4.27563477 57.73291016 C-4.88541011 60.48316754 -5.46095825 63.23516368 -6 66 C-6.33 66 -6.66 66 -7 66 C-6.88501733 63.79112243 -6.75756495 61.58289213 -6.625 59.375 C-6.55539062 58.14523438 -6.48578125 56.91546875 -6.4140625 55.6484375 C-6.01645684 52.14500646 -5.1613601 49.31101487 -4 46 C-3.75981182 44.4028724 -3.5664045 42.79743496 -3.4375 41.1875 C-3.10218978 37.10218978 -3.10218978 37.10218978 -2 36 C-1.62819644 34.02769832 -1.30199332 32.04669048 -1 30.0625 C-0.10806175 24.2161235 -0.10806175 24.2161235 1 22 C1.09874103 19.03196071 1.13893232 16.09258454 1.125 13.125 C1.12886719 12.30902344 1.13273438 11.49304688 1.13671875 10.65234375 C1.13542969 9.86214844 1.13414062 9.07195312 1.1328125 8.2578125 C1.13168457 7.5373877 1.13055664 6.81696289 1.12939453 6.07470703 C0.99634791 3.94144256 0.58204873 2.05248762 0 0 Z " fill="#929293" transform="translate(925,85)"/>
<path d="M0 0 C2.21420968 2.21420968 2.4373539 3.0838627 3.0625 6.0625 C3.21847656 6.77535156 3.37445312 7.48820313 3.53515625 8.22265625 C6.35299479 25.05864954 5.13959931 41.31153461 2 58 C1.67 58 1.34 58 1 58 C0.87394436 50.56271734 0.87394436 50.56271734 1.49560547 47.78759766 C2.43007272 42.62315086 2.1859248 37.36969711 2.18530273 32.13500977 C2.1874897 30.07221858 2.20567653 28.00996245 2.22460938 25.94726562 C2.22654297 24.63564453 2.22847656 23.32402344 2.23046875 21.97265625 C2.23457764 20.77906494 2.23868652 19.58547363 2.24291992 18.35571289 C1.99401404 14.91730958 1.18043646 12.22244422 0 9 C-0.1953125 6.4453125 -0.1953125 6.4453125 -0.125 4.125 C-0.10695313 3.34382812 -0.08890625 2.56265625 -0.0703125 1.7578125 C-0.04710937 1.17773438 -0.02390625 0.59765625 0 0 Z " fill="#9D9D9D" transform="translate(629,185)"/>
<path d="M0 0 C2 1 2 1 2.77685547 2.89624023 C4.60881032 9.23430381 5.97909404 15.56750502 7.125 22.0625 C7.4574445 23.92901093 7.79319553 25.79493704 8.1328125 27.66015625 C8.27605957 28.47105713 8.41930664 29.28195801 8.56689453 30.11743164 C8.82518692 32.00204331 8.82518692 32.00204331 10 33 C10.67747854 36.49456447 11.08961523 40.03509637 11.5625 43.5625 C11.77036133 45.02913086 11.77036133 45.02913086 11.98242188 46.52539062 C12.73690118 52.0743443 13.15312224 57.40105209 13 63 C10.96974441 59.95461662 10.65266252 58.74820544 10.25390625 55.23828125 C10.14062988 54.29235107 10.02735352 53.3464209 9.91064453 52.37182617 C9.73831299 50.85745972 9.73831299 50.85745972 9.5625 49.3125 C7.86462795 35.51220456 5.54689078 22.19983052 1.62548828 8.84838867 C0.7350327 5.80139297 0 3.19316247 0 0 Z " fill="#9D9C9C" transform="translate(611,745)"/>
<path d="M0 0 C1.24652344 -0.0014502 2.49304688 -0.00290039 3.77734375 -0.00439453 C12.78356347 0.10570898 12.78356347 0.10570898 16.1875 2.375 C14.979729 2.404729 14.979729 2.404729 13.74755859 2.43505859 C10.68695722 2.51434425 7.62667018 2.601054 4.56640625 2.69238281 C2.61994228 2.74834839 0.67324957 2.79617313 -1.2734375 2.84375 C-15.40770412 2.81356216 -15.40770412 2.81356216 -28.8125 6.375 C-30.81210012 6.414992 -32.81297242 6.41846799 -34.8125 6.375 C-23.9367671 0.4573218 -12.09985121 0.00154335 0 0 Z " fill="#8E8E8E" transform="translate(540.8125,117.625)"/>
<path d="M0 0 C0.66 0.33 1.32 0.66 2 1 C0.5484451 2.67257355 -0.91144409 4.33791758 -2.375 6 C-3.18710937 6.928125 -3.99921875 7.85625 -4.8359375 8.8125 C-5.55007813 9.534375 -6.26421875 10.25625 -7 11 C-7.66 11 -8.32 11 -9 11 C-9 15.95 -9 20.9 -9 26 C-8.34 26 -7.68 26 -7 26 C-6.67 27.65 -6.34 29.3 -6 31 C-12.14982888 25.00785904 -12.14982888 25.00785904 -12.4375 19.4375 C-12.37552947 13.31127029 -9.95728682 9.52770654 -6 5 C-4.07378831 3.14320134 -2.15936561 1.59381748 0 0 Z " fill="#747373" transform="translate(630,358)"/>
<path d="M0 0 C0.66 0.33 1.32 0.66 2 1 C0.94941406 1.75023437 -0.10117187 2.50046875 -1.18359375 3.2734375 C-8.51797487 8.59156299 -15.1730053 13.74812675 -21.02734375 20.73046875 C-24.03293607 24.18838783 -27.46876499 27.09418809 -31 30 C-31 26.20704308 -30.12710342 25.73137313 -27.51953125 23.0859375 C-26.77300293 22.32845215 -26.02647461 21.5709668 -25.25732422 20.79052734 C-24.45053223 19.99340332 -23.64374023 19.1962793 -22.8125 18.375 C-21.59457764 17.16191162 -21.59457764 17.16191162 -20.35205078 15.92431641 C-14.03420409 9.75070712 -7.56015199 4.56814838 0 0 Z " fill="#7A7979" transform="translate(480,136)"/>
<path d="M0 0 C3.65856624 3.65856624 4.26344195 7.9494704 4.9375 12.9375 C5.65645876 17.56018015 6.83554057 20.8442379 9 25 C10.97883234 31.58360334 12.34245056 38.16148582 13 45 C11.22949376 42.34424065 10.37534033 40.47232935 9.4140625 37.4921875 C9.12474854 36.59540283 8.83543457 35.69861816 8.53735352 34.7746582 C8.08573853 33.33932739 8.08573853 33.33932739 7.625 31.875 C7.16081665 30.40776489 7.16081665 30.40776489 6.68725586 28.91088867 C0 7.41126488 0 7.41126488 0 0 Z " fill="#9C9B9B" transform="translate(196,284)"/>
<path d="M0 0 C1.65262669 2.97860139 2.4370778 5.61212688 3 8.96484375 C3.2460498 10.40355835 3.2460498 10.40355835 3.49707031 11.87133789 C3.74602051 13.38908813 3.74602051 13.38908813 4 14.9375 C4.17370117 15.97060303 4.34740234 17.00370605 4.52636719 18.06811523 C5.02423621 21.04435385 5.5128973 24.0219837 6 27 C6.23419037 28.39846843 6.46853627 29.79691084 6.703125 31.1953125 C7.51759559 36.21012427 8.0897216 40.90829927 8 46 C7.67 46 7.34 46 7 46 C4.85052905 35.74364114 2.82223358 25.48758085 1.25 15.125 C1.12262451 14.30032227 0.99524902 13.47564453 0.86401367 12.62597656 C0.23881332 8.37619143 -0.13857785 4.30977101 0 0 Z " fill="#9FA09F" transform="translate(188,238)"/>
<path d="M0 0 C0.33 0 0.66 0 1 0 C0.51298949 7.59064664 -0.99763587 14.67059167 -3 22 C-3.66 22 -4.32 22 -5 22 C-5.12375 22.969375 -5.2475 23.93875 -5.375 24.9375 C-5.81033473 27.93579132 -6.33416077 30.9058109 -6.9375 33.875 C-7.09089844 34.63554688 -7.24429688 35.39609375 -7.40234375 36.1796875 C-7.59957031 36.78039062 -7.79679688 37.38109375 -8 38 C-8.99 38.495 -8.99 38.495 -10 39 C-7.44570896 25.87004781 -4.23231949 12.69695848 0 0 Z " fill="#949494" transform="translate(141,795)"/>
<path d="M0 0 C0.33 0 0.66 0 1 0 C0.25536744 15.97040879 0.25536744 15.97040879 -1.45703125 22.5625 C-2.73158287 28.28422815 -3.27980259 34.18478903 -4 40 C-4.33 40 -4.66 40 -5 40 C-4.70769852 26.26183029 -3.06358781 13.39429091 0 0 Z " fill="#7A7A7A" transform="translate(125,858)"/>
<path d="M0 0 C1.25101233 3.5418805 0.73982252 5.57726691 -0.51171875 9.0703125 C-0.85783203 10.05 -1.20394531 11.0296875 -1.56054688 12.0390625 C-2.11838867 13.56660156 -2.11838867 13.56660156 -2.6875 15.125 C-3.04005859 16.12015625 -3.39261719 17.1153125 -3.75585938 18.140625 C-6.02231154 24.48834842 -8.45020422 30.76104643 -11 37 C-11.33 37 -11.66 37 -12 37 C-12.33848342 32.14840436 -11.45203738 30.08276126 -9 26 C-8.29569982 23.95672611 -7.65256123 21.89164278 -7.0625 19.8125 C-5.56922692 14.75260159 -3.86154956 9.89104715 -1.83203125 5.0234375 C-1.15419841 3.37499896 -0.5636317 1.69089511 0 0 Z " fill="#949494" transform="translate(905,192)"/>
<path d="M0 0 C1 2 1 2 0.14453125 4.6875 C-0.29503906 5.780625 -0.73460937 6.87375 -1.1875 8 C-1.6515625 9.16273438 -2.115625 10.32546875 -2.59375 11.5234375 C-3.0578125 12.67070313 -3.521875 13.81796875 -4 15 C-4.3815625 15.98226562 -4.763125 16.96453125 -5.15625 17.9765625 C-6.56818227 21.6026613 -7.83184671 24.74777007 -10 28 C-10.495 29.794375 -10.495 29.794375 -11 31.625 C-11.33 32.73875 -11.66 33.8525 -12 35 C-12.99 35.495 -12.99 35.495 -14 36 C-11.67378211 23.31153877 -5.80655364 11.45402361 0 0 Z " fill="#989797" transform="translate(166,730)"/>
<path d="M0 0 C1.32 0.33 2.64 0.66 4 1 C2.88121617 2.17262904 1.75476949 3.33795138 0.625 4.5 C-0.00148438 5.1496875 -0.62796875 5.799375 -1.2734375 6.46875 C-3 8 -3 8 -5 8 C-5.33 10.97 -5.66 13.94 -6 17 C-6.66 17 -7.32 17 -8 17 C-7.938125 18.918125 -7.938125 18.918125 -7.875 20.875 C-7.8046875 23.0546875 -7.8046875 23.0546875 -8 25 C-8.66 25.66 -9.32 26.32 -10 27 C-9.40464415 16.01671111 -7.9205268 7.97179235 0 0 Z " fill="#797978" transform="translate(799,79)"/>
<path d="M0 0 C1.45334411 3.88867748 0.57338302 7.32338842 -0.25 11.25 C-0.53570116 12.67436998 -0.82084013 14.09885281 -1.10546875 15.5234375 C-1.25419434 16.2565918 -1.40291992 16.98974609 -1.55615234 17.74511719 C-2.00105981 20.00538416 -2.40713483 22.26934526 -2.80078125 24.5390625 C-2.9287207 25.26577148 -3.05666016 25.99248047 -3.18847656 26.74121094 C-3.43401264 28.14198467 -3.6744178 29.54366942 -3.90917969 30.94628906 C-4.77590855 35.77590855 -4.77590855 35.77590855 -7 38 C-6.85904936 36.3745692 -6.71207913 34.74965949 -6.5625 33.125 C-6.48128906 32.22007812 -6.40007812 31.31515625 -6.31640625 30.3828125 C-6 28 -6 28 -5 26 C-4.67904921 23.31276653 -4.39233378 20.63001489 -4.125 17.9375 C-3.44796572 11.58713209 -2.38654797 5.96636994 0 0 Z " fill="#A6A5A6" transform="translate(256,890)"/>
<path d="M0 0 C4.85246055 0.78265493 9.37744949 2.37940633 14 4 C14.72058594 4.25007812 15.44117188 4.50015625 16.18359375 4.7578125 C20.0731795 6.15482818 23.52271297 7.71803039 27 10 C23.47776479 11.1740784 22.80702916 10.7977988 19.47265625 9.453125 C18.59802734 9.1025 17.72339844 8.751875 16.82226562 8.390625 C15.91154297 8.01421875 15.00082031 7.6378125 14.0625 7.25 C13.15564453 6.8890625 12.24878906 6.528125 11.31445312 6.15625 C7.11913961 4.45219329 3.55473143 2.85028615 0 0 Z " fill="#8B8B8B" transform="translate(450,581)"/>
<path d="M0 0 C0.33 0 0.66 0 1 0 C3.33333333 9.33333333 5.66666667 18.66666667 8 28 C4.28878104 26.14439052 3.30530395 21.75542365 2 18 C0.61405548 11.97884104 -0.10986598 6.17996118 0 0 Z " fill="#8F8F8E" transform="translate(333,226)"/>
<path d="M0 0 C1.31223156 3.60448416 0.67781335 5.43739253 -0.875 8.875 C-2.47349959 12.60115767 -3.57198841 15.93388992 -4 20 C-4.66 20 -5.32 20 -6 20 C-6.33 22.64 -6.66 25.28 -7 28 C-10.02077749 19.22733114 -3.54022729 7.89204819 0 0 Z " fill="#979797" transform="translate(428,197)"/>
<path d="M0 0 C1.66996439 3.33992878 0.05029603 6.76956856 -0.8125 10.25 C-0.99103516 11.00152344 -1.16957031 11.75304687 -1.35351562 12.52734375 C-2.3771706 16.76239285 -3.55209747 20.88559823 -5 25 C-5.33 25 -5.66 25 -6 25 C-6.19484351 20.12891234 -5.70615579 16.54974876 -4 12 C-3.67 10.824375 -3.34 9.64875 -3 8.4375 C-2.15291726 5.52565307 -1.18281837 2.78807188 0 0 Z " fill="#8F8F8F" transform="translate(917,151)"/>
<path d="M0 0 C0.66 0.33 1.32 0.66 2 1 C-0.20588362 2.44137875 -2.41454997 3.87815365 -4.625 5.3125 C-5.24246094 5.71662109 -5.85992188 6.12074219 -6.49609375 6.53710938 C-10.21716477 8.94601325 -13.90062871 11.27920374 -18 13 C-18.99 12.67 -19.98 12.34 -21 12 C-18.13002745 10.20626715 -15.22919427 8.60085166 -12.1875 7.125 C-8.47403047 5.31406704 -5.07924055 3.17534069 -1.6640625 0.85546875 C-1.11492188 0.57316406 -0.56578125 0.29085938 0 0 Z " fill="#989898" transform="translate(574,321)"/>
<path d="M0 0 C0.66 0.33 1.32 0.66 2 1 C3.74988965 6.24966895 4.01226775 12.80429426 2.328125 18.12109375 C1.5 19.75 1.5 19.75 0 22 C-1.25240315 18.24279056 -0.4357968 17.58949199 1 14 C1.45555876 11.33597161 1.72626593 8.69171836 2 6 C1.34 6 0.68 6 0 6 C0 4.02 0 2.04 0 0 Z " fill="#7B7A7B" transform="translate(405,625)"/>
<path d="M0 0 C0.66 0 1.32 0 2 0 C2.33 3.96 2.66 7.92 3 12 C3.66 12 4.32 12 5 12 C5.33 13.65 5.66 15.3 6 17 C0.04925569 11.20183888 0.04925569 11.20183888 -0.09765625 7.6171875 C-0.08605469 6.71226562 -0.07445312 5.80734375 -0.0625 4.875 C-0.05347656 3.96492188 -0.04445313 3.05484375 -0.03515625 2.1171875 C-0.02355469 1.41851562 -0.01195312 0.71984375 0 0 Z " fill="#8F8E8D" transform="translate(618,372)"/>
<path d="M0 0 C0.66 0.33 1.32 0.66 2 1 C-2.48915921 5.43634557 -5.95967767 7.43816557 -12.375 7.5 C-17.66057441 7.33942559 -17.66057441 7.33942559 -20 5 C-19.2265625 5.05800781 -18.453125 5.11601562 -17.65625 5.17578125 C-10.99386053 5.46437485 -6.85637118 5.14768136 -1.5234375 0.99609375 C-1.02070312 0.66738281 -0.51796875 0.33867187 0 0 Z " fill="#969696" transform="translate(736,456)"/>
<path d="M0 0 C2.63884562 2.40111178 4.36413529 5.00555028 6.1875 8.0625 C6.71730469 8.94035156 7.24710938 9.81820312 7.79296875 10.72265625 C9 13 9 13 9 15 C8.34 15 7.68 15 7 15 C7 14.01 7 13.02 7 12 C6.34 12 5.68 12 5 12 C5 11.01 5 10.02 5 9 C4.34 9 3.68 9 3 9 C2.67 7.35 2.34 5.7 2 4 C1.34 4 0.68 4 0 4 C0 2.68 0 1.36 0 0 Z " fill="#878687" transform="translate(720,592)"/>
<path d="M0 0 C1.07365377 3.2209613 0.93405499 4.23714565 0.22265625 7.44921875 C0.03896484 8.29677734 -0.14472656 9.14433594 -0.33398438 10.01757812 C-0.53314453 10.89865234 -0.73230469 11.77972656 -0.9375 12.6875 C-1.13279297 13.58017578 -1.32808594 14.47285156 -1.52929688 15.39257812 C-2.01255202 17.59669306 -2.50302834 19.7989445 -3 22 C-3.33 22 -3.66 22 -4 22 C-3.67942955 14.12944269 -3.3161515 7.209025 0 0 Z " fill="#A2A1A1" transform="translate(922,129)"/>
<path d="M0 0 C1.35814777 4.0744433 -0.05254238 6.81468116 -1.4375 10.6875 C-1.68048828 11.38939453 -1.92347656 12.09128906 -2.17382812 12.81445312 C-2.7744944 14.54578532 -3.38619719 16.27328137 -4 18 C-4.33 18 -4.66 18 -5 18 C-4.71311275 10.99995111 -3.49595688 6.08973134 0 0 Z " fill="#929291" transform="translate(274,827)"/>
<path d="M0 0 C1.90528567 6.72837018 -1.81203933 13.07950162 -5 19 C-6 17 -6 17 -5.56274414 15.21240234 C-5.30614014 14.51066895 -5.04953613 13.80893555 -4.78515625 13.0859375 C-4.37426758 11.94511719 -4.37426758 11.94511719 -3.95507812 10.78125 C-3.66052734 9.9871875 -3.36597656 9.193125 -3.0625 8.375 C-2.77181641 7.57320312 -2.48113281 6.77140625 -2.18164062 5.9453125 C-1.46117475 3.96107862 -0.73144862 1.98021163 0 0 Z " fill="#9C9B9B" transform="translate(151,766)"/>
<path d="M0 0 C0 0.33 0 0.66 0 1 C-0.8353125 1.02126953 -0.8353125 1.02126953 -1.6875 1.04296875 C-8.02916101 1.43932256 -11.87968075 3.36543286 -17 7 C-17.99 7.495 -17.99 7.495 -19 8 C-15.85980158 -0.79255559 -7.9034669 -0.5062719 0 0 Z " fill="#757474" transform="translate(214,79)"/>
<path d="M0 0 C1.19561139 3.55267384 0.8553676 6.33110547 0.25 10 C0.01023437 11.546875 0.01023437 11.546875 -0.234375 13.125 C-1.02049364 16.07695571 -2.00625593 17.72143534 -4 20 C-3.21085905 13.21338787 -1.58725189 6.63850633 0 0 Z " fill="#9C9B9C" transform="translate(786,117)"/>
<path d="M0 0 C1.36420006 4.09260018 -0.2335485 6.47012659 -1.9375 10.1875 C-2.22818359 10.84169922 -2.51886719 11.49589844 -2.81835938 12.16992188 C-3.53695343 13.78381344 -4.2673588 15.39243655 -5 17 C-6.21527577 13.35417269 -5.65504434 12.51096991 -4.1875 9.0625 C-3.83042969 8.20785156 -3.47335937 7.35320312 -3.10546875 6.47265625 C-2.12595669 4.28173351 -1.09483961 2.13518494 0 0 Z " fill="#A3A2A2" transform="translate(889,237)"/>
<path d="M0 0 C2.02196167 2.02196167 2.67551358 3.25864486 3.6875 5.875 C3.95949219 6.55304688 4.23148438 7.23109375 4.51171875 7.9296875 C5.07336741 10.31107782 4.76694846 11.70430191 4 14 C1.24297811 9.20517932 0.46671627 5.41390868 0 0 Z " fill="#858484" transform="translate(624,171)"/>
<path d="M0 0 C-2.10063576 0.69821417 -4.20565737 1.38324472 -6.3125 2.0625 C-7.48425781 2.44535156 -8.65601563 2.82820313 -9.86328125 3.22265625 C-13 4 -13 4 -16 3 C-5.78382511 -1.60729456 -5.78382511 -1.60729456 0 0 Z " fill="#A8A7A7" transform="translate(546,338)"/>
<path d="M0 0 C2 1 2 1 2.88671875 3.21484375 C3.15097656 4.11332031 3.41523437 5.01179687 3.6875 5.9375 C3.95949219 6.83339844 4.23148438 7.72929688 4.51171875 8.65234375 C5 11 5 11 4 13 C1.55302334 8.63799813 0.49730652 4.97306516 0 0 Z " fill="#898889" transform="translate(611,745)"/>
<path d="M0 0 C2.64 0.33 5.28 0.66 8 1 C8.33 1.99 8.66 2.98 9 4 C9.66 4.33 10.32 4.66 11 5 C7.08406554 4.21681311 3.63593365 2.60820142 0 1 C0 0.67 0 0.34 0 0 Z " fill="#848384" transform="translate(432,573)"/>
<path d="M0 0 C3.12493704 3.12493704 3.95911133 5.91645015 4.125 10.3125 C4.08375 11.199375 4.0425 12.08625 4 13 C1.47519307 10.47519307 1.44261367 8.86176966 0.875 5.375 C0.70742187 4.37210937 0.53984375 3.36921875 0.3671875 2.3359375 C0.24601563 1.56507813 0.12484375 0.79421875 0 0 Z " fill="#919190" transform="translate(196,284)"/>
<path d="M0 0 C1.90318884 2.85478326 2.4619099 4.41941308 3.125 7.6875 C3.29257812 8.49574219 3.46015625 9.30398438 3.6328125 10.13671875 C3.75398438 10.75160156 3.87515625 11.36648438 4 12 C1 10 1 10 0.48828125 7.6171875 C0.40126953 6.25980469 0.40126953 6.25980469 0.3125 4.875 C0.24675781 3.96492188 0.18101562 3.05484375 0.11328125 2.1171875 C0.07589844 1.41851562 0.03851563 0.71984375 0 0 Z " fill="#919192" transform="translate(341,254)"/>
</svg>
